<svg width="247" height="232" viewBox="0 0 247 232" fill="none" xmlns="http://www.w3.org/2000/svg">
<path d="M2 190.705C8.73814 202.908 18.1674 219.14 26.7842 229.892M26.7842 229.892C27.7766 231.132 34.4652 221.271 34.7351 220.79C40.6659 210.253 45.035 199.264 49.2474 187.968M26.7842 229.892C5.62159 157.167 34.3578 86.1814 83.6675 64.1169C88.5547 61.93 93.8762 59.5549 99.3863 57.6634M99.3863 57.6634C108.161 54.6512 117.414 52.8654 126.152 55.0196C134.216 57.008 143.883 62.9933 146.218 71.3592C150.579 86.9873 132.999 99.4101 118.445 93.6699C105.656 88.6259 95.9683 70.8216 99.3863 57.6634ZM99.3863 57.6634C99.4584 57.3859 99.5363 57.1104 99.6201 56.8371C119.86 -9.11724 201.009 -10.2108 245 25.1982" stroke="#076AFF" stroke-width="3" stroke-miterlimit="1.5" stroke-linecap="round" stroke-linejoin="round"/>
</svg>
